<!-- created by svgstack.com | Attribution is required. --><svg width="134" height="201" viewBox="0 0 134 201" fill="none" xmlns="http://www.w3.org/2000/svg"><g clip-path="url(#clip0_106_2271)"><path d="M33.586 200.275C51.986 200.275 66.9193 185.342 66.9193 166.942V133.609H33.586C15.186 133.609 0.252686 148.542 0.252686 166.942C0.252686 185.342 15.186 200.275 33.586 200.275Z" fill="#0ACF83"/><path d="M0.252686 100.275C0.252686 81.8752 15.186 66.9419 33.586 66.9419H66.9193V133.609H33.586C15.186 133.609 0.252686 118.675 0.252686 100.275Z" fill="#A259FF"/><path d="M0.252686 33.6085C0.252686 15.2085 15.186 0.275146 33.586 0.275146H66.9193V66.9418H33.586C15.186 66.9418 0.252686 52.0085 0.252686 33.6085Z" fill="#F24E1E"/><path d="M66.9197 0.275146H100.253C118.653 0.275146 133.586 15.2085 133.586 33.6085C133.586 52.0085 118.653 66.9418 100.253 66.9418H66.9197V0.275146Z" fill="#FF7262"/><path d="M133.586 100.275C133.586 118.675 118.653 133.609 100.253 133.609C81.853 133.609 66.9197 118.675 66.9197 100.275C66.9197 81.8752 81.853 66.9419 100.253 66.9419C118.653 66.9419 133.586 81.8752 133.586 100.275Z" fill="#1ABCFE"/></g><defs><clipPath id="clip0_106_2271"><rect width="133.36" height="200" fill="white" transform="translate(0.239502 0.275146)"/></clipPath></defs></svg> 